<svg width="214" height="592" viewBox="0 0 214 592" fill="none" xmlns="http://www.w3.org/2000/svg">
<mask id="mask0_1_31" style="mask-type:alpha" maskUnits="userSpaceOnUse" x="-519" y="-23" width="733" height="669">
<rect x="-519" y="-23" width="733" height="669" fill="#D9D9D9"/>
</mask>
<g mask="url(#mask0_1_31)">
<path fill-rule="evenodd" clip-rule="evenodd" d="M143.406 0C142.956 0 142.482 0.0709 142.031 0.25C137.165 2.05307 133.273 4.94018 130.344 8.90625C127.415 12.8706 125.136 17.3422 123.469 22.3438C121.802 27.3453 120.631 32.479 120 37.75C119.523 41.7399 119.241 45.5003 119.125 49H56.625V48.9375H52.625V590.406H56.625V591.406H425.219H793.781V587.969V584.531H425.219H56.625V550.25H425.219H793.781V546.812V543.406H425.219H56.625V509.094H425.219H793.781V505.688V502.25H425.219H56.625V467.969H425.219H793.781V464.531V461.094H425.219H56.625V426.812H425.219H793.781V423.406V419.969H425.219H56.625V220.406H150.688C151.539 223.756 152.804 228.79 155.156 238.281C155.787 241.608 156.229 244.07 156.5 245.656C156.77 247.226 156.872 249.45 156.781 252.281C156.693 255.13 156.385 257.842 155.844 260.469C155.303 263.079 154.488 265.192 153.406 266.812C151.695 269.064 149.332 271.166 146.312 273.094C143.293 275.038 140.05 276.377 136.625 277.094C133.201 277.81 129.869 277.745 126.625 276.875C123.381 276.022 120.865 273.991 119.062 270.75C123.478 270.921 126.928 270.038 129.406 268.094C131.885 266.166 133.533 263.798 134.344 261C135.156 258.202 135.189 255.207 134.469 252C133.747 248.81 132.472 246.095 130.625 243.844C128.778 241.592 126.432 240.038 123.594 239.219C120.755 238.417 117.577 238.911 114.062 240.719C110.909 242.237 108.375 244.767 106.438 248.281C104.5 251.795 103.531 255.219 103.531 258.562C103.531 263.868 105.131 268.392 108.375 272.094C111.619 275.795 115.63 278.521 120.406 280.312C124.281 281.848 128.257 282.625 132.312 282.625C133.483 282.625 135.675 282.401 138.875 281.906C142.073 281.395 145.595 279.724 149.469 276.875C153.344 274.043 156.452 270.395 158.75 265.875C161.048 261.372 162.016 256.314 161.656 250.719C161.296 244.868 160.735 240.108 159.969 236.406C159.333 233.342 158.091 227.662 156.5 220.406H425.219H793.781V217V213.562H425.219H156.438C156.734 213.335 157.097 213.113 157.531 212.938C159.198 212.262 160.473 211.666 161.375 211.125C169.485 206.529 175.399 199.459 179.094 189.906C180.117 186.325 180.765 182.772 181.062 179.281H425.219H793.781V175.844V172.406H425.219H181.125C180.824 168.441 179.88 164.5 178.219 160.625C176.191 155.895 173.473 151.66 170.094 147.875C166.714 144.09 162.686 141.101 158 138.938C157.235 138.636 156.453 138.375 155.656 138.125H425.219H793.781V134.719V131.281H425.219H138.469L133.938 109.062C133.938 108.882 134.328 108.356 135.094 107.5C135.86 106.645 136.728 105.741 137.719 104.75L140.625 101.844C141.572 100.899 142.234 100.237 142.594 99.875C143.414 98.9316 144.157 97.9713 144.875 97H425.219H793.781V93.5625V90.125H425.219H149.219C149.847 89.0549 150.476 87.9657 151.094 86.9062C154.789 79.6974 157.252 72.2875 158.469 64.7188C158.943 61.7665 159.297 58.8232 159.531 55.8438H425.219H793.781V52.4062V49H425.219H159.844C159.885 46.5956 159.862 44.1723 159.75 41.75C159.569 36.6137 158.907 31.4636 157.781 26.2812C156.654 21.1006 154.901 16.2205 152.469 11.625C152.107 11.0842 151.564 10.0483 150.844 8.5625C150.122 7.075 149.289 5.64708 148.344 4.25C147.397 2.85292 146.481 1.78237 145.625 1.0625C144.769 0.34093 144.037 0 143.406 0ZM145.562 24.6875C146.441 24.6199 147.308 24.6638 148.188 24.8438C149.945 25.2054 151.387 26.5295 152.469 28.7812C154.001 31.3059 154.579 34.3989 154.219 38.0938C153.857 41.7886 153.179 45.1205 152.188 48.0938C152.093 48.3884 151.976 48.6984 151.875 49H127.75C128.191 47.236 128.692 45.4958 129.281 43.7812C130.768 39.4552 132.485 35.5453 134.469 32.0312C135.189 30.9497 136.361 29.7096 137.938 28.3125C139.515 26.9154 141.18 25.8812 142.938 25.25C143.816 24.9344 144.684 24.7551 145.562 24.6875ZM38.0938 49C36.4542 49.0966 34.7139 50.8319 31.75 55.0938C25.755 63.0309 17.1547 81.6194 13.7188 91.3125C8.56614 111.648 6.87621 136.376 8.59375 160.25C9.43527 168.178 11.1261 185.833 13.7188 199.969C17.9962 233.571 18.875 247.708 18.875 261.844C17.999 284.813 12.0262 303.347 2.5625 315.719C0.844107 317.484 0 319.252 0 320.156C0 321.061 0.844107 322.829 2.5625 324.594C12.0262 336.965 17.999 355.485 18.875 377.594C18.875 392.59 17.9962 406.709 13.7188 439.406C11.1261 454.447 9.43527 472.119 8.59375 479.188C6.87621 503.921 8.56614 528.663 13.7188 548.094C17.9962 563.995 33.4702 591.406 37.7812 591.406C39.4988 591.406 41.2188 589.617 41.2188 587.844C41.2188 586.948 39.4988 584.326 37.7812 581.656C27.4752 566.66 23.155 551.625 21.4375 528.656C21.4375 514.52 22.3163 501.254 26.5938 467.688C28.3113 454.456 30.0311 438.552 30.9062 432.344C34.3422 389.944 27.4896 353.717 10.3125 327.219C7.71895 323.68 6 320.156 6 320.156C6 320.156 7.71895 316.601 10.3125 313.062C27.4896 286.564 34.3422 250.335 30.9062 207.031C30.0311 201.728 28.3113 185.846 26.5938 171.719C22.3163 139.048 21.4375 125.761 21.4375 111.625C23.155 88.656 27.4752 73.6213 37.7812 58.625C41.2163 53.3217 42.0925 51.5773 40.375 49.8125C39.5645 49.2582 38.839 48.9561 38.0938 49ZM56.625 55.8438H119.156C119.342 60.6413 119.872 65.3444 120.812 69.9375C121.984 75.6606 123.343 81.491 124.875 87.4375C123.839 88.329 122.821 89.2156 121.812 90.125H56.625V55.8438ZM126.406 55.8438H149.281C149.059 56.3745 148.831 56.8906 148.594 57.4375C147.108 60.8628 145.37 64.2111 143.344 67.5C141.316 70.7889 139.107 73.8671 136.719 76.75C134.331 79.6346 131.731 81.8069 128.938 83.25C127.405 79.1048 126.437 74.905 126.031 70.625C125.626 66.3434 125.678 61.8586 126.219 57.2188C126.273 56.7552 126.343 56.3041 126.406 55.8438ZM56.625 97H114.656C110.305 101.418 106.244 106.01 102.5 110.812C97.5498 117.162 93.0977 124 89.1562 131.281H56.625V97ZM129.219 113.125L133 131.281H110.719C112.438 129.258 114.222 127.274 116.094 125.344C120.419 120.883 124.803 116.82 129.219 113.125ZM56.625 138.125H85.6562C85.6119 138.218 85.5755 138.314 85.5312 138.406C83.008 144.805 81.75 151.638 81.75 158.938V166.719C81.75 168.323 82.053 170.224 82.625 172.406H56.625V138.125ZM105.344 138.125H132.875C132.037 138.72 131.076 139.408 130.562 139.75C129.751 140.291 128.919 140.869 128.062 141.5C127.207 142.131 126.68 142.538 126.5 142.719C123.166 145.151 120.277 148.042 117.844 151.375C115.861 154.529 114.314 157.996 113.188 161.781C112.167 165.212 111.768 168.754 111.969 172.406H92.7188C92.7574 166.402 93.7967 160.658 95.875 155.219C97.9928 149.676 100.829 144.426 104.344 139.469C104.668 139.011 105.013 138.578 105.344 138.125ZM143.125 155.562C149.974 155.562 155.651 157.908 160.156 162.594C163.032 165.583 165.246 168.848 166.781 172.406H146.594L143.125 155.562ZM138.406 156.094C139.415 161.284 140.548 167.059 141.594 172.406H122.656C123.511 169.2 125.09 166.193 127.438 163.406C130.321 159.981 133.99 157.535 138.406 156.094ZM56.625 179.281H84.9688C85.6565 180.973 86.4667 182.773 87.375 184.688C91.1149 192.574 96.0771 199.303 102.25 204.844C106.305 208.485 110.765 211.38 115.656 213.562H56.625V179.281ZM93.2812 179.281H113.031C114.546 184.832 117.633 189.539 122.312 193.406C125.647 196.199 129.521 198.068 133.938 198.969C135.017 198.969 135.426 198.494 135.156 197.594C134.885 196.693 134.207 196.25 133.125 196.25C128.529 193.816 125.386 190.622 123.719 186.656C122.694 184.219 122.094 181.753 121.938 179.281H142.969C144.777 188.502 146.491 197.387 148.406 207.062L149.219 210.844C149.219 211.204 148.52 211.559 147.125 211.875C145.728 212.191 144.2 212.48 142.531 212.75C140.865 213.021 139.269 213.258 137.781 213.438C137.038 213.528 136.948 213.517 136.531 213.562H132.094C127.864 213.223 123.675 212.224 119.531 210.531C114.35 208.413 109.778 205.476 105.812 201.781C101.847 198.088 98.6693 193.752 96.2812 188.75C94.8347 185.72 93.8516 182.559 93.2812 179.281ZM148.031 179.281H168.844C169.926 185.182 169.375 190.989 167.188 196.719C164.934 202.621 160.617 206.785 154.219 209.219L148.031 179.281Z" fill="black"/>
<path d="M71.77 560.745C71.77 559.236 79.0325 553.028 87.9089 546.948C106.993 533.877 120.776 519.576 128.792 504.527C147.175 470.016 141.352 434.032 116.852 430.746C103.301 428.928 86.1442 438.816 86.1442 448.443C86.1442 452.015 87.0579 452.302 96.9922 451.859C109.147 451.316 117.371 463.147 110.793 471.715C100.399 485.252 75.3635 477.475 75.3635 460.709C75.3635 446.015 84.3056 434.32 100.044 428.432C133.725 415.83 165.785 439.061 162.978 474.034C160.677 502.699 135.72 529.47 87.2691 555.244C75.773 561.359 71.77 562.78 71.77 560.745Z" fill="black"/>
<path d="M190.539 449.848C190.539 455.682 186.024 460.412 180.454 460.412C174.885 460.412 170.37 455.682 170.37 449.848C170.37 444.013 174.885 439.283 180.454 439.283C186.024 439.283 190.539 444.013 190.539 449.848Z" fill="black"/>
<path d="M191.235 485.567C191.235 491.402 186.72 496.132 181.15 496.132C175.581 496.132 171.066 491.402 171.066 485.567C171.066 479.732 175.581 475.003 181.15 475.003C186.72 475.003 191.235 479.732 191.235 485.567Z" fill="black"/>
</g>
</svg>
