<svg width="105" height="592" viewBox="0 0 105 592" fill="none" xmlns="http://www.w3.org/2000/svg">
<mask id="mask0_1_31" style="mask-type:alpha" maskUnits="userSpaceOnUse" x="0" y="-13" width="733" height="669">
<rect y="-13" width="733" height="669" fill="#D9D9D9"/>
</mask>
<g mask="url(#mask0_1_31)">
<path fill-rule="evenodd" clip-rule="evenodd" d="M-545.594 0C-546.044 0 -546.518 0.0709 -546.969 0.25C-551.835 2.05307 -555.727 4.94018 -558.656 8.90625C-561.585 12.8706 -563.864 17.3422 -565.531 22.3438C-567.198 27.3453 -568.369 32.479 -569 37.75C-569.477 41.7399 -569.759 45.5003 -569.875 49H-632.375V48.9375H-636.375V590.406H-632.375V591.406H-263.781H104.781V587.969V584.531H-263.781H-632.375V550.25H-263.781H104.781V546.812V543.406H-263.781H-632.375V509.094H-263.781H104.781V505.688V502.25H-263.781H-632.375V467.969H-263.781H104.781V464.531V461.094H-263.781H-632.375V426.812H-263.781H104.781V423.406V419.969H-263.781H-632.375V220.406H-538.312C-537.461 223.756 -536.196 228.79 -533.844 238.281C-533.213 241.608 -532.771 244.07 -532.5 245.656C-532.23 247.226 -532.128 249.45 -532.219 252.281C-532.307 255.13 -532.615 257.842 -533.156 260.469C-533.697 263.079 -534.512 265.192 -535.594 266.812C-537.305 269.064 -539.668 271.166 -542.688 273.094C-545.707 275.038 -548.95 276.377 -552.375 277.094C-555.799 277.81 -559.131 277.745 -562.375 276.875C-565.619 276.022 -568.135 273.991 -569.938 270.75C-565.522 270.921 -562.072 270.038 -559.594 268.094C-557.115 266.166 -555.467 263.798 -554.656 261C-553.844 258.202 -553.811 255.207 -554.531 252C-555.253 248.81 -556.528 246.095 -558.375 243.844C-560.222 241.592 -562.568 240.038 -565.406 239.219C-568.245 238.417 -571.423 238.911 -574.938 240.719C-578.091 242.237 -580.625 244.767 -582.562 248.281C-584.5 251.795 -585.469 255.219 -585.469 258.562C-585.469 263.868 -583.869 268.392 -580.625 272.094C-577.381 275.795 -573.37 278.521 -568.594 280.312C-564.719 281.848 -560.743 282.625 -556.688 282.625C-555.517 282.625 -553.325 282.401 -550.125 281.906C-546.927 281.395 -543.405 279.724 -539.531 276.875C-535.656 274.043 -532.548 270.395 -530.25 265.875C-527.952 261.372 -526.984 256.314 -527.344 250.719C-527.704 244.868 -528.265 240.108 -529.031 236.406C-529.667 233.342 -530.909 227.662 -532.5 220.406H-263.781H104.781V217V213.562H-263.781H-532.562C-532.266 213.335 -531.903 213.113 -531.469 212.938C-529.802 212.262 -528.527 211.666 -527.625 211.125C-519.515 206.529 -513.601 199.459 -509.906 189.906C-508.883 186.325 -508.235 182.772 -507.938 179.281H-263.781H104.781V175.844V172.406H-263.781H-507.875C-508.176 168.441 -509.12 164.5 -510.781 160.625C-512.809 155.895 -515.527 151.66 -518.906 147.875C-522.286 144.09 -526.314 141.101 -531 138.938C-531.765 138.636 -532.547 138.375 -533.344 138.125H-263.781H104.781V134.719V131.281H-263.781H-550.531L-555.062 109.062C-555.062 108.882 -554.672 108.356 -553.906 107.5C-553.14 106.645 -552.272 105.741 -551.281 104.75L-548.375 101.844C-547.428 100.899 -546.766 100.237 -546.406 99.875C-545.586 98.9316 -544.843 97.9713 -544.125 97H-263.781H104.781V93.5625V90.125H-263.781H-539.781C-539.153 89.0549 -538.524 87.9657 -537.906 86.9062C-534.211 79.6974 -531.748 72.2875 -530.531 64.7188C-530.057 61.7665 -529.703 58.8232 -529.469 55.8438H-263.781H104.781V52.4062V49H-263.781H-529.156C-529.115 46.5956 -529.138 44.1723 -529.25 41.75C-529.431 36.6137 -530.093 31.4636 -531.219 26.2812C-532.346 21.1006 -534.099 16.2205 -536.531 11.625C-536.893 11.0842 -537.436 10.0483 -538.156 8.5625C-538.878 7.075 -539.711 5.64708 -540.656 4.25C-541.603 2.85292 -542.519 1.78237 -543.375 1.0625C-544.231 0.34093 -544.963 0 -545.594 0ZM-543.438 24.6875C-542.559 24.6199 -541.692 24.6638 -540.812 24.8438C-539.055 25.2054 -537.613 26.5295 -536.531 28.7812C-534.999 31.3059 -534.421 34.3989 -534.781 38.0938C-535.143 41.7886 -535.821 45.1205 -536.812 48.0938C-536.907 48.3884 -537.024 48.6984 -537.125 49H-561.25C-560.809 47.236 -560.308 45.4958 -559.719 43.7812C-558.232 39.4552 -556.515 35.5453 -554.531 32.0312C-553.811 30.9497 -552.639 29.7096 -551.062 28.3125C-549.485 26.9154 -547.82 25.8812 -546.062 25.25C-545.184 24.9344 -544.316 24.7551 -543.438 24.6875ZM-650.906 49C-652.546 49.0966 -654.286 50.8319 -657.25 55.0938C-663.245 63.0309 -671.845 81.6194 -675.281 91.3125C-680.434 111.648 -682.124 136.376 -680.406 160.25C-679.565 168.178 -677.874 185.833 -675.281 199.969C-671.004 233.571 -670.125 247.708 -670.125 261.844C-671.001 284.813 -676.974 303.347 -686.438 315.719C-688.156 317.484 -689 319.252 -689 320.156C-689 321.061 -688.156 322.829 -686.438 324.594C-676.974 336.965 -671.001 355.485 -670.125 377.594C-670.125 392.59 -671.004 406.709 -675.281 439.406C-677.874 454.447 -679.565 472.119 -680.406 479.188C-682.124 503.921 -680.434 528.663 -675.281 548.094C-671.004 563.995 -655.53 591.406 -651.219 591.406C-649.501 591.406 -647.781 589.617 -647.781 587.844C-647.781 586.948 -649.501 584.326 -651.219 581.656C-661.525 566.66 -665.845 551.625 -667.562 528.656C-667.562 514.52 -666.684 501.254 -662.406 467.688C-660.689 454.456 -658.969 438.552 -658.094 432.344C-654.658 389.944 -661.51 353.717 -678.688 327.219C-681.281 323.68 -683 320.156 -683 320.156C-683 320.156 -681.281 316.601 -678.688 313.062C-661.51 286.564 -654.658 250.335 -658.094 207.031C-658.969 201.728 -660.689 185.846 -662.406 171.719C-666.684 139.048 -667.562 125.761 -667.562 111.625C-665.845 88.656 -661.525 73.6213 -651.219 58.625C-647.784 53.3217 -646.907 51.5773 -648.625 49.8125C-649.435 49.2582 -650.161 48.9561 -650.906 49ZM-632.375 55.8438H-569.844C-569.658 60.6413 -569.128 65.3444 -568.188 69.9375C-567.016 75.6606 -565.657 81.491 -564.125 87.4375C-565.161 88.329 -566.179 89.2156 -567.188 90.125H-632.375V55.8438ZM-562.594 55.8438H-539.719C-539.941 56.3745 -540.169 56.8906 -540.406 57.4375C-541.892 60.8628 -543.63 64.2111 -545.656 67.5C-547.684 70.7889 -549.893 73.8671 -552.281 76.75C-554.669 79.6346 -557.269 81.8069 -560.062 83.25C-561.595 79.1048 -562.563 74.905 -562.969 70.625C-563.374 66.3434 -563.322 61.8586 -562.781 57.2188C-562.727 56.7552 -562.657 56.3041 -562.594 55.8438ZM-632.375 97H-574.344C-578.695 101.418 -582.756 106.01 -586.5 110.812C-591.45 117.162 -595.902 124 -599.844 131.281H-632.375V97ZM-559.781 113.125L-556 131.281H-578.281C-576.562 129.258 -574.778 127.274 -572.906 125.344C-568.581 120.883 -564.197 116.82 -559.781 113.125ZM-632.375 138.125H-603.344C-603.388 138.218 -603.425 138.314 -603.469 138.406C-605.992 144.805 -607.25 151.638 -607.25 158.938V166.719C-607.25 168.323 -606.947 170.224 -606.375 172.406H-632.375V138.125ZM-583.656 138.125H-556.125C-556.963 138.72 -557.924 139.408 -558.438 139.75C-559.249 140.291 -560.081 140.869 -560.938 141.5C-561.793 142.131 -562.32 142.538 -562.5 142.719C-565.834 145.151 -568.723 148.042 -571.156 151.375C-573.139 154.529 -574.686 157.996 -575.812 161.781C-576.833 165.212 -577.232 168.754 -577.031 172.406H-596.281C-596.243 166.402 -595.203 160.658 -593.125 155.219C-591.007 149.676 -588.171 144.426 -584.656 139.469C-584.332 139.011 -583.987 138.578 -583.656 138.125ZM-545.875 155.562C-539.026 155.562 -533.349 157.908 -528.844 162.594C-525.968 165.583 -523.754 168.848 -522.219 172.406H-542.406L-545.875 155.562ZM-550.594 156.094C-549.585 161.284 -548.452 167.059 -547.406 172.406H-566.344C-565.489 169.2 -563.91 166.193 -561.562 163.406C-558.679 159.981 -555.01 157.535 -550.594 156.094ZM-632.375 179.281H-604.031C-603.344 180.973 -602.533 182.773 -601.625 184.688C-597.885 192.574 -592.923 199.303 -586.75 204.844C-582.695 208.485 -578.235 211.38 -573.344 213.562H-632.375V179.281ZM-595.719 179.281H-575.969C-574.454 184.832 -571.367 189.539 -566.688 193.406C-563.353 196.199 -559.479 198.068 -555.062 198.969C-553.983 198.969 -553.574 198.494 -553.844 197.594C-554.115 196.693 -554.793 196.25 -555.875 196.25C-560.471 193.816 -563.614 190.622 -565.281 186.656C-566.306 184.219 -566.906 181.753 -567.062 179.281H-546.031C-544.223 188.502 -542.509 197.387 -540.594 207.062L-539.781 210.844C-539.781 211.204 -540.48 211.559 -541.875 211.875C-543.272 212.191 -544.8 212.48 -546.469 212.75C-548.135 213.021 -549.731 213.258 -551.219 213.438C-551.962 213.528 -552.052 213.517 -552.469 213.562H-556.906C-561.136 213.223 -565.325 212.224 -569.469 210.531C-574.65 208.413 -579.222 205.476 -583.188 201.781C-587.153 198.088 -590.331 193.752 -592.719 188.75C-594.165 185.72 -595.148 182.559 -595.719 179.281ZM-540.969 179.281H-520.156C-519.074 185.182 -519.625 190.989 -521.812 196.719C-524.066 202.621 -528.383 206.785 -534.781 209.219L-540.969 179.281Z" fill="black"/>
</g>
</svg>
